Patient4_TMGait_0pt7_02_left_08_EMG.mot
version=1
nRows=41
nColumns=33
inDegrees=no
endheader
time	1LAddLong	2LGlutMax	3LGlutMed	4LIliopsoas	5LSemiMemb	6LBicFemLong	7LRecFem	8LVastMed	9LVastLat	10LGasMed	11LTibAnt	12lTibPost	13LPeroneusLong	14LSol	15LExtDigLong	16LFlexDigLong	17RAddLong	18RGlutMax	19RGlutMed	20RIliopsoas	21RSemiMemb	22RBicFemLong	23RRecFem	24RVastMed	25RVastLat	26RGasMed	27RTibAnt	28RTibPost	29RPeroneusLong	30RSol	31RExtDigLong	32RFlexDigLong
9.157	-0.005341	0.94086	-0.33997	-0.004578	-0.15259	0.13962	0.21286	-0.03418	-1.0823	0.34821	-0.002747	0.008698	0.031891	-0.25162	0.066833	-0.027313	-0.2681	0.13458	0.46631	-0.19592	0.19196	-0.16235	0.78079	-0.12024	0.036621	0.011749	-1.058	-0.014954	0.18204	0.1384	0.001526	-0.001831
9.158	0.016022	0.96725	-0.22278	-0.00885	-0.23499	0.059662	-0.016937	-0.012054	-0.81436	0.24872	0.000153	0.019379	0.011749	-0.090332	0.10162	-0.43228	-0.24994	0.11276	0.59036	-0.19913	0.31158	-0.067444	0.80505	-0.10132	0.031738	0.00473	-0.2272	-0.018463	0.018768	0.17288	0.003357	0.002899
9.159	0.032196	0.94345	-0.092773	0.011444	-0.2002	0.058136	0.00824	-0.003662	-0.65277	-0.022583	0.040131	0.027466	0.014954	0.13489	0.11948	-0.16815	-0.24139	0.025482	0.89508	-0.26749	0.31021	0.031738	0.77774	-0.07782	0.017242	-0.003662	0.3949	-0.015717	-0.1268	0.14633	0.000763	-0.003662
9.16	0.026093	0.93567	-0.065765	0.013885	-0.000305	0.15762	-0.040894	0.010986	-0.66528	-0.28183	0.031128	0.044098	0.031128	0.37918	0.1149	1.3918	-0.26611	-0.12802	1.0081	-0.25589	0.2945	0.032654	0.76141	-0.029907	0.034485	-0.018616	0.3009	-0.012665	-0.26001	0.14893	0.001373	-0.000458
9.161	0.030823	0.92514	-0.014496	0.003967	0.10437	0.020447	-0.1503	0.020142	-0.62378	-0.32562	0.017242	0.046844	0.041504	0.5484	0.098724	-0.89004	-0.18402	-0.32913	0.78384	-0.092163	0.27268	0.12421	0.69946	0.040894	0.058136	-0.005035	0.14832	-0.011902	-0.29526	0.14877	0.000305	-0.003052
9.162	0.024414	0.93689	0.022736	0.007324	0.037994	-0.23209	-0.17517	0.013123	-0.47653	-0.21484	0.020142	0.008698	0.014801	0.36896	0.057831	0.050354	-0.087128	-0.43808	0.30548	0.097046	0.25833	0.070496	0.69763	0.11444	0.028687	-0.010071	-0.16968	-0.014648	-0.17166	0.052795	-0.001678	-0.002594
9.163	0.011902	1.006	-0.076904	-0.002441	-0.025024	-0.29098	-0.17731	0.026245	-0.49133	-0.092316	0.023193	0.014648	0.014038	0.048676	0.03479	0.58991	-0.000916	-0.56869	0.26947	0.068512	0.19104	0.005188	0.811	0.12802	0.010681	0	-0.41275	-0.011749	0.020752	-0.036316	-0.001373	-0.002441
9.164	0.008087	0.95932	-0.015106	-0.007782	-0.048065	-0.21042	-0.21332	0.021057	-0.48721	-0.086975	0.019836	0.097809	0.000305	-0.26443	0.049133	0.03952	0.032196	-0.64056	0.25833	0.067291	0.097198	0.049744	0.80246	0.12131	0.000763	0.002594	-0.61035	-0.009308	0.22369	-0.1178	0.002136	-0.009155
9.165	0.026245	0.94223	0.042267	0.024719	-0.066223	-0.016937	-0.3212	0.02533	-0.43442	-0.13199	0.007782	0.019226	0.025635	-0.43808	0.080872	-0.067444	0.041351	-0.72769	0.054169	0.1535	0.029907	-0.067902	0.84137	0.12192	-0.011902	0.011597	-0.61279	-0.006866	0.29572	-0.14572	0.002747	0.003357
9.166	0.006104	1.0503	0.039063	0.008392	-0.16205	0.1265	-0.45624	0.033264	-0.36804	-0.14313	0.012512	0.012665	0.015259	-0.5339	0.066681	0.17319	0.050507	-0.77377	0.11505	0.13428	0.005951	-0.24445	0.75653	0.19852	-0.014191	0.012054	-0.26291	-0.010223	0.28336	-0.088806	-0.000763	0.003815
9.167	0.007019	1.2234	0.052032	-0.011902	-0.30838	0.058289	-0.48691	0.018616	-0.33295	-0.041199	0.012512	0.083466	0.001221	-0.6488	0.06546	0.02533	0.050049	-0.78323	0.12863	0.12741	-0.047913	-0.1622	0.82062	0.1178	-0.034637	0.002747	-0.25436	-0.010681	0.10834	0.008392	0.010223	0.007629
9.168	0.026855	1.4572	0.017548	-0.017853	-0.28503	0.049286	-0.51926	0.013733	-0.3241	0.052185	0	0.11108	-0.007324	-0.68939	0.029755	-0.06012	0.087891	-0.8139	-0.054626	0.11246	-0.043793	-0.089264	0.85266	0.005798	-0.041199	-0.002899	-0.51987	-0.012054	0.042877	0.049744	-0.002441	-0.001068
9.169	0.043182	1.711	0.16098	-0.032654	-0.17319	-0.090179	-0.62531	0.005951	-0.27893	0.03952	-0.012817	0.10315	0.001678	-0.34927	0.00946	-0.066223	0.10284	-0.98465	0.007629	0.087585	-0.051575	-0.093689	0.89737	-0.027618	-0.059052	-0.00351	-0.29846	-0.011749	-0.024719	0.18387	0.002136	-0.003052
9.17	0.046692	1.9392	0.15671	-0.010986	-0.025787	-0.15869	-0.63034	0.018463	-0.23621	0.00885	-0.013885	0.1239	-0.02533	-0.15854	0.007935	-0.024567	0.027313	-0.96832	0.2301	0.02655	-0.071716	-0.10513	0.88394	0.019989	-0.057678	-0.017548	0.44235	-0.010681	-0.057678	0.37506	0.001068	-0.011597
9.171	0.054626	2.1109	0.17731	0.007782	0.074921	-0.12482	-0.63812	0.017853	-0.23102	-0.009155	0.024261	0.075531	-0.07309	-0.061646	0.036469	-0.50262	0.009613	-1.021	0.41946	-0.046539	-0.099487	-0.098419	0.87708	0.046082	-0.048981	-0.010681	0.98618	-0.00946	-0.04837	0.29205	-0.00061	-0.000458
9.172	0.06546	2.3698	0.19424	0.017395	0.10635	-0.076599	-0.5452	0.005493	-0.18036	-0.18021	0.033264	0.059204	-0.043945	0.086823	0.045319	-0.03418	-0.024719	-0.99442	0.30533	0.009918	-0.13153	-0.093231	0.86212	-0.053253	-0.030975	0.005188	1.0568	-0.008392	0.057068	0.1297	-0.003967	-0.002289
9.173	0.047913	2.5075	0.1001	0.006409	0.10132	-0.02594	-0.53818	0.000458	-0.089417	-0.21439	0.010681	0.077209	-0.005341	0.15289	0.035095	0.074921	-0.02533	-1.0309	0.071869	0.1651	-0.16098	-0.12054	0.85068	-0.066071	-0.029755	0.01358	0.25818	-0.005951	0.19562	0.050354	-0.005646	-0.001831
9.174	0.034943	2.7275	0.12421	-0.016174	0.082092	0.16525	-0.52658	-0.008545	-0.012665	-0.085144	0.020752	0.10574	-0.005341	0.10574	0.022278	0.028381	-0.019836	-0.9845	0.4747	0.20905	-0.19363	-0.1474	0.82687	-0.057068	-0.027924	0.009766	-0.18494	-0.003967	0.070038	0.021973	-0.002136	-0.00061
9.175	0.021973	2.502	0.003967	-0.018005	0.025482	0.3125	-0.47134	-0.014038	0.037384	0.084534	0.026855	0.11047	-0.014496	0.035248	-0.018158	-0.01358	-0.019379	-0.92316	0.45425	0.27313	-0.1831	-0.14847	0.80734	-0.11215	-0.027771	0.014191	-0.41641	-0.004425	-0.004272	0.020905	0.003967	-0.006561
9.176	0.010529	2.3521	-0.1944	-0.01297	-0.054932	0.39215	-0.47363	-0.066681	0.061035	0.25299	0.02243	0.097198	0.037537	-0.009003	0	-0.020447	-0.032654	-1.0245	-0.16296	0.40009	-0.20187	-0.06485	0.75531	-0.033264	-0.028534	0.011902	-0.32455	-0.005188	-0.086517	0.086365	0.002289	-0.003357
9.177	-0.012665	2.1071	-0.086212	0.004272	-0.10559	0.40085	-0.47195	-0.015259	-0.023499	0.1358	0.026398	0.077362	0.065765	0.015869	0.018463	-0.02594	-0.045013	-0.98404	-0.37643	0.40359	-0.24017	-0.044403	0.72906	0.049591	-0.028381	0.007477	-0.33264	-0.009918	-0.027924	0.14969	0.007477	-0.002594
9.178	-0.022888	1.8376	0.015259	0.025177	-0.1033	0.19028	-0.44754	-0.010681	-0.021057	-0.037537	0.04776	0.067749	0.025635	0.040741	-0.002289	-0.023193	0.013123	-0.98053	-0.16007	0.2626	-0.28519	-0.053406	0.70679	0.039825	-0.022278	0.011139	-0.048523	-0.011749	0.062103	0.1767	0.000458	-0.002136
9.179	-0.024109	1.5317	0.069122	0.018921	-0.009155	-0.1207	-0.42114	-0.005951	0.011444	-0.034637	0.079498	0.057983	0.027161	0.063477	0.03891	-0.022736	0.073395	-1.001	-0.047607	0.18463	-0.2626	0.056458	0.61844	-0.037231	0.009003	0.005798	0.32013	-0.011444	0.012054	0.10742	-0.000763	-0.002136
9.18	-0.00473	1.1414	0.008698	0.001831	0.00946	0.14725	-0.38986	-0.007324	0.18799	0.037689	0.07782	0.049133	0.032501	0.038605	0.076599	-0.022278	0.13825	-1.0735	-0.12344	0.059967	-0.22614	0.07782	0.59204	-0.12283	0.022736	0.005035	0.30014	-0.013885	-0.12207	0.17792	0.005951	-0.002136
9.181	-0.01236	0.73822	0.02533	0.000305	-0.066376	0.48675	-0.29114	-0.016327	0.22064	0.028839	0.024719	0.029449	-0.000458	0.04837	-0.022736	-0.007019	0.13763	-1.0828	-0.2681	-0.12344	-0.19821	0.14984	0.59555	-0.096283	0.017548	-0.002441	0.47257	-0.007629	-0.17868	0.20447	0.000153	-0.007782
9.182	-0.019836	0.21255	-0.032349	0.001068	-0.11688	0.46982	-0.29785	-0.022125	0.17578	0.028534	-0.05188	0.002136	0.010529	0.027008	-0.1593	-0.014343	0.11185	-1.0164	-0.23239	-0.14526	-0.1622	0.15289	0.61798	-0.14572	0.009766	-0.001678	0.5043	-0.008698	-0.13001	0.16068	0.00061	-0.013428
9.183	-0.001831	-0.12833	-0.037842	-0.010376	-0.075684	0.35538	-0.35767	-0.030212	0.13443	0.031738	-0.009003	-0.008392	0.026855	0.083466	-0.17609	-0.020905	0.10239	-0.97626	-0.50018	-0.14313	-0.14832	0.098572	0.61813	-0.14267	0.002899	0.003052	0.46143	-0.007477	-0.088959	0.044098	-0.002289	-0.009613
9.184	0.010376	-0.28381	-0.07843	0.012207	-0.017242	-0.06073	-0.401	-0.02655	0.11795	0.004425	0.006866	-0.028534	0.040588	0.10391	-0.14618	-0.02243	0.069885	-0.87341	-0.44373	-0.001984	-0.16647	0.069122	0.62302	-0.12405	-0.007782	-0.00061	0.61127	-0.008545	-0.19882	0.02655	0.001526	-0.013123
9.185	0.012207	-0.31265	-0.075378	0.016632	-0.047913	-0.21866	-0.34744	0.015259	0.10346	-0.028992	0.042725	-0.043488	0.014343	0.075073	-0.025787	-0.000305	0.049896	-0.76981	-0.07309	0.081635	-0.17456	0.12665	0.57495	0.032196	-0.003662	-0.001526	-0.26321	-0.003204	-0.21759	0.055542	0.000763	-0.019836
9.186	0	-0.27649	-0.032043	0.003204	-0.075378	-0.022583	-0.29709	0.014191	0.094147	-0.031738	0.045624	-0.044403	0.002289	0.073395	0.15793	-0.025482	0.040283	-0.65155	0.24262	0.087738	-0.22186	0.093079	0.54901	0.15198	0.006866	0.007782	-0.64819	-0.006256	-0.17731	0.095215	0.002441	-0.017853
9.187	-0.005188	-0.2861	0.029297	-0.010071	0.011749	-0.085449	-0.25559	-0.007172	0.15945	-0.029449	0.080109	-0.066071	-0.05249	0.016174	0.42954	0.016937	0.066833	-0.55466	-0.00351	0.0737	-0.26703	0.027313	0.53619	0.30136	0.034485	0.013733	-0.51926	0.007172	0.030823	0.057068	0.00061	-0.024261
9.188	-0.02243	-0.36407	0.11231	0.001526	-0.037689	-0.52841	-0.27069	0	0.21973	-0.025482	0.065765	-0.066986	-0.050964	0.014038	0.14313	0.072327	0.15396	-0.49286	-0.36102	0.11032	-0.3212	-0.018921	0.54108	0.40176	0.010681	0.024872	-0.80688	-0.001984	0.23117	-0.14435	0.002441	-0.024719
9.189	-0.036011	-0.36057	0.19333	-0.014038	-0.12283	-0.20538	-0.27268	0.014954	0.23605	0.036621	-0.017548	-0.12711	-0.037384	0.010376	-0.08667	-0.1358	0.18402	-0.44189	-0.40939	0.15045	-0.24506	0.00824	0.50705	0.40176	0.005646	0.021515	-0.33188	-0.005188	0.27222	-0.19272	0.000458	-0.034485
9.19	-0.022736	-0.47562	0.27573	-0.009613	-0.14694	0.24246	-0.2713	0.016327	0.24674	0.08194	-0.055389	0.083771	0.014496	-0.050812	-0.10849	0.088043	0.19516	-0.32532	-0.50049	0.11658	-0.14832	0.09613	0.52917	0.4216	0.001984	0.007172	0.067444	-0.002747	0.12711	-0.11658	-0.000153	-0.031128
9.191	-0.006256	-0.5748	0.26504	-0.013428	0.012054	0.50293	-0.28076	-0.005035	0.21118	0.15335	-0.022736	-0.096741	0.031891	-0.007782	0.12787	0.11414	0.1828	-0.25162	-0.31937	-0.023041	-0.05188	0.14435	0.49393	0.36316	-0.000916	0.001373	-0.1535	-0.002747	-0.036621	-0.05188	-0.003815	-0.031891
9.192	0.006256	-0.71487	0.2092	-0.007782	0.042114	0.4837	-0.31815	0.00351	0.11536	0.13901	-0.071259	-0.13947	0.006714	0.20493	-0.13657	-0.17242	0.11231	-0.31494	-0.168	-0.16968	-0.021057	0.066223	0.47775	0.26871	-0.013885	0.009613	0.25757	-0.00824	-0.002594	-0.033264	0.001068	-0.023804
9.193	-0.007782	-0.7428	0.2713	0.003052	-0.027161	0.47058	-0.3154	0.005035	0.11383	0.13473	-0.10132	-0.037689	-0.019379	0.27603	0.11444	-0.13931	0.008087	-0.24704	-0.18188	-0.18585	-0.12039	-0.039368	0.43045	0.22781	-0.026093	0.010681	0.72861	-0.001984	-0.037079	-0.007019	-0.001984	-0.02182
9.194	-0.011444	-0.69519	0.36301	0.018311	-0.065155	0.54153	-0.28732	-0.00473	0.13931	0.07843	-0.082092	-0.067749	-0.043182	-0.061493	-0.13245	-0.034485	-0.08255	-0.13473	-0.14008	-0.16449	-0.20294	0.045166	0.44952	0.12344	-0.039825	0.004425	0.89172	-0.002899	-0.1062	0.065308	-0.000916	-0.014343
9.195	-0.011597	-0.72403	0.30167	0.006866	-0.080261	0.42938	-0.26535	-0.004883	0.12634	0.04425	-0.035553	-0.030212	-0.066376	-0.16327	0.011139	-0.026703	-0.084686	-0.083923	0.053253	-0.082703	-0.27481	0.06485	0.40878	0.035553	-0.06012	0.004425	0.96039	-0.003815	-0.18372	0.013733	0.003967	-0.019836
9.196	-0.020447	-0.73364	0.15549	0.00885	-0.10452	-0.2121	-0.28549	-0.011597	0.15228	0.052795	-0.04837	-0.027771	-0.068359	-0.15396	-0.12451	-0.026245	-0.11383	0.121	0.16693	-0.047913	-0.29205	0.059357	0.24017	0.004425	-0.052185	0.00946	-0.51331	-0.001831	0.02594	-0.042419	-0.001678	-0.016937
9.197	-0.027313	-0.82199	-0.016937	-0.005951	-0.13184	-0.34058	-0.27054	-0.003967	0.19531	0.014801	0.080414	-0.059814	-0.036011	-0.041199	-0.034943	-0.039368	-0.083008	0.40558	0.13443	-0.045319	-0.31876	0.008545	0.26367	-0.027008	-0.041656	0.016785	-0.80353	-0.001068	0.1297	-0.028534	0.002136	-0.021057
